<svg xmlns="http://www.w3.org/2000/svg" width="28.75" height="15.344" viewBox="0 0 28.75 15.344">
  <defs>
    <style>
      .cls-1 {
        fill: #fff;
        fill-rule: evenodd;
      }
    </style>
  </defs>
  <path id="Left_Arrow" data-name="Left Arrow" class="cls-1" d="M67.353,605.262v5.28a0.588,0.588,0,0,1-.264.624,0.582,0.582,0,0,1-.6-0.288l-6.528-6.528a1.307,1.307,0,0,1-.336-0.888,1.139,1.139,0,0,1,.336-0.84l6.528-6.576a0.473,0.473,0,0,1,.864.384v5.28H87.129a1.23,1.23,0,0,1,1.248,1.248v1.056a1.23,1.23,0,0,1-1.248,1.248H67.353Z" transform="translate(-59.625 -595.812)"/>
</svg>
