<svg xmlns="http://www.w3.org/2000/svg" width="28.82" height="15.344" viewBox="0 0 28.82 15.344">
  <defs>
    <style>
      .cls-1 {
        fill: #fff;
        fill-rule: evenodd;
      }
    </style>
  </defs>
  <path id="Right_Arrow" data-name="Right Arrow" class="cls-1" d="M1831.44,604.9a1.207,1.207,0,0,1-.36-0.888v-1.1a1.151,1.151,0,0,1,.36-0.84,1.192,1.192,0,0,1,.88-0.36h19.78v-5.28a0.6,0.6,0,0,1,.26-0.624,0.586,0.586,0,0,1,.6.24l6.53,6.576a1.063,1.063,0,0,1,.39.84,1.21,1.21,0,0,1-.39.888l-6.53,6.528a0.578,0.578,0,0,1-.6.288,0.6,0.6,0,0,1-.26-0.624v-5.28h-19.78A1.192,1.192,0,0,1,1831.44,604.9Z" transform="translate(-1831.06 -595.812)"/>
</svg>
